<?xml version="1.0" encoding="UTF-8"?>
<svg width="122px" height="77px" viewBox="0 0 122 77" version="1.1" xmlns="http://www.w3.org/2000/svg" xmlns:xlink="http://www.w3.org/1999/xlink">
    <!-- Generator: Sketch 46.2 (44496) - http://www.bohemiancoding.com/sketch -->
    <title>Blue Stripes</title>
    <desc>Created with Sketch.</desc>
    <defs></defs>
    <g id="Page-1" stroke="none" stroke-width="1" fill="none" fill-rule="evenodd">
        <g id="Case-Study-Mockup-(Desktop)" transform="translate(-118.000000, -40.000000)">
            <g id="Logo/Stripes" transform="translate(118.000000, 39.000000)">
                <g id="Blue-Stripes">
                    <path d="M16.75,49.58 L15.5,56.58 C15.4727421,58.6252104 16.2989553,60.5892786 17.78,62 C19.1452064,63.4568978 21.0534195,64.2824624 23.05,64.28 C25.1371535,64.3516887 27.1668432,63.5887556 28.69,62.16 C30.1860064,60.7135845 30.9967353,58.6994866 30.92,56.62 L30.92,5 L37.92,1.55 L46.54,5 L46.54,57 C46.54,63.3533333 44.47,68.27 40.33,71.75 C36.19,75.23 30.81,76.98 24.19,77 L22.12,77 C15.5,77 10.2433333,75.2766667 6.35,71.83 C2.45666667,68.3833333 0.506666667,63.44 0.5,57 L0.5,52.38 L7.62,48.87 L16.75,49.58 Z" id="Shape" stroke="#3423A6" fill-rule="nonzero"></path>
                    <path d="M22.5,48.38 L22.5,52.62 C22.4838728,54.6513543 23.3091843,56.5988 24.78,58 C26.1452064,59.4568978 28.0534195,60.2824624 30.05,60.28 C32.1371535,60.3516887 34.1668432,59.5887556 35.69,58.16 C37.1860064,56.7135845 37.9967353,54.6994866 37.92,52.62 L37.92,1 L53.54,1 L53.54,53 C53.54,59.3533333 51.47,64.27 47.33,67.75 C43.19,71.23 37.81,72.98 31.19,73 L29.12,73 C22.5,73 17.2433333,71.2766667 13.35,67.83 C9.45666667,64.3833333 7.50666667,59.44 7.5,53 L7.5,48.38 L22.5,48.38 Z" id="Shape" fill="#3423A6" fill-rule="nonzero"></path>
                    <path d="M30.92,11.91 L38.82,8.53" id="Shape" stroke="#3423A6" fill="#FCDFE5" fill-rule="nonzero"></path>
                    <path d="M30.92,18.77 L38.82,15.38" id="Shape" stroke="#3423A6" fill="#FCDFE5" fill-rule="nonzero"></path>
                    <path d="M30.92,25.91 L38.82,22.53" id="Shape" stroke="#3423A6" fill="#FCDFE5" fill-rule="nonzero"></path>
                    <path d="M30.92,32.77 L38.82,29.38" id="Shape" stroke="#3423A6" fill="#FCDFE5" fill-rule="nonzero"></path>
                    <path d="M30.92,39.91 L38.82,36.53" id="Shape" stroke="#3423A6" fill="#FCDFE5" fill-rule="nonzero"></path>
                    <path d="M30.92,46.77 L38.82,43.38" id="Shape" stroke="#3423A6" fill="#FCDFE5" fill-rule="nonzero"></path>
                    <path d="M30.92,53.91 L38.82,50.53" id="Shape" stroke="#3423A6" fill="#FCDFE5" fill-rule="nonzero"></path>
                    <path d="M93.6,5 C96.8515868,4.96719105 100.057181,5.76945034 102.91,7.33 C105.673949,8.8167909 108.008813,10.9897978 109.69,13.64 C111.364571,16.2456515 112.243727,19.2827357 112.22,22.38 C112.22,27.2133333 111.083333,30.9366667 108.81,33.55 C106.523312,36.1799959 103.493631,38.055679 100.12,38.93 L100.12,39.45 C103.825653,40.1630638 107.220478,42.0036736 109.84,44.72 C112.506667,47.48 113.84,51.5833333 113.84,57.03 C113.865106,60.3874467 112.95066,63.6849926 111.2,66.55 C109.461591,69.4274535 106.99993,71.7994744 104.06,73.43 C101.060058,75.1296588 97.6679337,76.01561 94.22,76 L58.43,76 L58.43,5 L66.5,1.52 L93.6,5 Z" id="Shape" stroke="#3423A6" fill-rule="nonzero"></path>
                    <path d="M94.53,31.38 C96.1173076,29.7941168 96.9786222,27.6227353 96.91,25.38 C96.91,22.48 96.12,20.38 94.53,19.12 C92.9835463,17.860921 91.0440336,17.1849229 89.05,17.21 L73.53,17.21 L73.53,33.76 L89.05,33.76 C91.1274538,33.7598686 93.1117915,32.8980577 94.53,31.38 L94.53,31.38 Z" id="Shape" stroke="#3423A6" fill-rule="nonzero"></path>
                    <path d="M96,60.76 C97.5438085,59.2452374 98.3971462,57.1625149 98.36,55 L98.36,54 C98.3733835,51.8281893 97.5172391,49.7413101 95.9824475,48.2046399 C94.4476559,46.6679697 92.3618254,45.8092731 90.19,45.82 L73.53,45.82 L73.53,63.14 L90.19,63.14 C92.3731948,63.1882018 94.4780355,62.3259779 96,60.76 Z" id="Shape" stroke="#3423A6" fill-rule="nonzero"></path>
                    <path d="M101.6,1 C104.851587,0.967191045 108.057181,1.76945034 110.91,3.33 C113.673949,4.8167909 116.008813,6.98979776 117.69,9.64 C119.364571,12.2456515 120.243727,15.2827357 120.22,18.38 C120.22,23.2133333 119.083333,26.9366667 116.81,29.55 C114.523312,32.1799959 111.493631,34.055679 108.12,34.93 L108.12,35.45 C111.825653,36.1630638 115.220478,38.0036736 117.84,40.72 C120.506667,43.48 121.84,47.5833333 121.84,53.03 C121.865106,56.3874467 120.95066,59.6849926 119.2,62.55 C117.461591,65.4274535 114.99993,67.7994744 112.06,69.43 C109.060058,71.1296588 105.667934,72.01561 102.22,72 L66.43,72 L66.43,1 L101.6,1 Z M102.53,27.38 C104.117308,25.7941168 104.978622,23.6227353 104.91,21.38 C104.91,18.48 104.12,16.38 102.53,15.12 C100.983546,13.860921 99.0440336,13.1849229 97.05,13.21 L81.53,13.21 L81.53,29.76 L97.05,29.76 C99.1274538,29.7598686 101.111792,28.8980577 102.53,27.38 Z M104,56.76 C105.543809,55.2452374 106.397146,53.1625149 106.36,51 L106.36,50 C106.373384,47.8281893 105.517239,45.7413101 103.982447,44.2046399 C102.447656,42.6679697 100.361825,41.8092731 98.19,41.82 L81.53,41.82 L81.53,59.14 L98.19,59.14 C100.373195,59.1882018 102.478035,58.3259779 104,56.76 L104,56.76 Z" id="Shape" fill="#3423A6" fill-rule="nonzero"></path>
                    <path d="M58.43,75.97 L67.59,71.12" id="Shape" stroke="#3423A6" fill="#000000" fill-rule="nonzero"></path>
                    <path d="M58.43,68.97 L67.59,64.12" id="Shape" stroke="#3423A6" fill="#000000" fill-rule="nonzero"></path>
                    <path d="M58.43,61.97 L67.59,57.12" id="Shape" stroke="#3423A6" fill="#000000" fill-rule="nonzero"></path>
                    <path d="M58.43,54.97 L67.59,50.12" id="Shape" stroke="#3423A6" fill="#000000" fill-rule="nonzero"></path>
                    <path d="M58.43,47.97 L67.59,43.12" id="Shape" stroke="#3423A6" fill="#000000" fill-rule="nonzero"></path>
                    <path d="M58.43,40.97 L67.59,36.12" id="Shape" stroke="#3423A6" fill="#000000" fill-rule="nonzero"></path>
                    <path d="M58.43,33.97 L67.59,29.12" id="Shape" stroke="#3423A6" fill="#000000" fill-rule="nonzero"></path>
                    <path d="M58.43,26.97 L67.59,22.12" id="Shape" stroke="#3423A6" fill="#000000" fill-rule="nonzero"></path>
                    <path d="M58.43,19.97 L67.59,15.12" id="Shape" stroke="#3423A6" fill="#000000" fill-rule="nonzero"></path>
                    <path d="M58.43,12.97 L67.59,8.12" id="Shape" stroke="#3423A6" fill="#000000" fill-rule="nonzero"></path>
                    <path d="M67.43,75.97 L76.59,71.12" id="Shape" stroke="#3423A6" fill="#000000" fill-rule="nonzero"></path>
                    <path d="M76.43,75.97 L85.59,71.12" id="Shape" stroke="#3423A6" fill="#000000" fill-rule="nonzero"></path>
                    <path d="M85.43,75.97 L94.59,71.12" id="Shape" stroke="#3423A6" fill="#000000" fill-rule="nonzero"></path>
                    <path d="M94.43,75.97 L103.59,71.12" id="Shape" stroke="#3423A6" fill="#000000" fill-rule="nonzero"></path>
                    <path d="M81.98,17.21 L91.59,12.12" id="Shape" stroke="#3423A6" fill="#000000" fill-rule="nonzero"></path>
                    <path d="M94.43,18.97 L103.59,14.12" id="Shape" stroke="#3423A6" fill="#000000" fill-rule="nonzero"></path>
                    <path d="M89.98,17.21 L99.59,12.12" id="Shape" stroke="#3423A6" fill="#000000" fill-rule="nonzero"></path>
                    <path d="M96.43,21.97 L105.59,17.12" id="Shape" stroke="#3423A6" fill="#000000" fill-rule="nonzero"></path>
                    <path d="M96.91,25.48 L106.07,20.64" id="Shape" stroke="#3423A6" fill="#000000" fill-rule="nonzero"></path>
                    <path d="M95.43,30.39 L104.59,25.54" id="Shape" stroke="#3423A6" fill="#000000" fill-rule="nonzero"></path>
                    <path d="M80.63,46.05 L90.24,40.97" id="Shape" stroke="#3423A6" fill="#000000" fill-rule="nonzero"></path>
                    <path d="M88.5,45.86 L98.11,40.78" id="Shape" stroke="#3423A6" fill="#000000" fill-rule="nonzero"></path>
                    <path d="M94.5,46.86 L104.11,41.78" id="Shape" stroke="#3423A6" fill="#000000" fill-rule="nonzero"></path>
                    <path d="M97.5,49.86 L107.11,44.78" id="Shape" stroke="#3423A6" fill="#000000" fill-rule="nonzero"></path>
                    <path d="M98.5,53.86 L108.11,48.78" id="Shape" stroke="#3423A6" fill="#000000" fill-rule="nonzero"></path>
                    <path d="M97.5,58.86 L107.11,53.78" id="Shape" stroke="#3423A6" fill="#000000" fill-rule="nonzero"></path>
                    <path d="M0.5,59.03 L8.82,55.38" id="Shape" stroke="#3423A6" fill="#FCDFE5" fill-rule="nonzero"></path>
                    <path d="M1.5,65.03 L9.82,61.38" id="Shape" stroke="#3423A6" fill="#FCDFE5" fill-rule="nonzero"></path>
                    <path d="M4.5,70.03 L12.82,66.38" id="Shape" stroke="#3423A6" fill="#FCDFE5" fill-rule="nonzero"></path>
                    <path d="M9.46,74.05 L17.82,70.38" id="Shape" stroke="#3423A6" fill="#FCDFE5" fill-rule="nonzero"></path>
                    <path d="M17.73,70.81 L27.82,66.38" id="Shape" stroke="#3423A6" fill="#FCDFE5" fill-rule="nonzero"></path>
                    <path d="M17.73,76.81 L27.82,72.38" id="Shape" stroke="#3423A6" fill="#FCDFE5" fill-rule="nonzero"></path>
                </g>
            </g>
        </g>
    </g>
</svg>